<svg width="24" height="28" viewBox="0 0 24 28" fill="none" xmlns="http://www.w3.org/2000/svg">
<path d="M24 6.66662C24 9.23995 21.9067 11.3333 19.3333 11.3333C16.76 11.3333 14.6667 9.23995 14.6667 6.66662C14.6667 4.09329 16.76 1.99996 19.3333 1.99996C21.9067 1.99996 24 4.09329 24 6.66662ZM11.3333 27.3333C12.8133 27.3333 14 26.1466 14 24.6666H8.66666C8.66666 25.3739 8.94761 26.0521 9.44771 26.5522C9.94781 27.0523 10.6261 27.3333 11.3333 27.3333ZM20 14H19.3333C18.6667 14 18 13.8933 17.3333 13.72V20.6666H5.33333V12C5.33333 8.66662 7.99999 5.99996 11.3333 5.99996C11.5733 5.99996 11.8 6.03996 12 6.06662C12.1333 4.74662 12.6 3.51996 13.3333 2.49329C13.2267 1.46663 12.3733 0.666626 11.3333 0.666626C10.2267 0.666626 9.33333 1.55996 9.33333 2.66662V3.57329C5.50666 4.47996 2.66666 7.90662 2.66666 12V19.3333L0 21.9999V23.3333H22.6666V21.9999L20 19.3333V14Z" fill="white"/>
<circle cx="19.2021" cy="6.50438" r="4.79784" fill="#FBA403"/>
</svg>
