<svg width="38" height="38" viewBox="0 0 38 38" fill="none" xmlns="http://www.w3.org/2000/svg">
<g id="Instagram">
<path id="Vector" d="M24.7228 19.1485C24.7228 20.6034 24.1448 21.9987 23.1161 23.0275C22.0873 24.0562 20.692 24.6342 19.2372 24.6342C17.7823 24.6342 16.387 24.0562 15.3582 23.0275C14.3295 21.9987 13.7515 20.6034 13.7515 19.1485C13.7515 18.8358 13.7844 18.5305 13.8411 18.2343H11.923V25.5429C11.923 26.0513 12.3344 26.4627 12.8427 26.4627H25.6334C25.877 26.4622 26.1105 26.3651 26.2826 26.1927C26.4547 26.0202 26.5513 25.7866 26.5513 25.5429V18.2343H24.6332C24.6899 18.5305 24.7228 18.8358 24.7228 19.1485ZM19.2372 22.8056C19.7175 22.8055 20.1932 22.7108 20.6369 22.5268C21.0807 22.3429 21.4839 22.0733 21.8235 21.7336C22.1631 21.3938 22.4324 20.9905 22.6161 20.5466C22.7999 20.1028 22.8944 19.6271 22.8942 19.1467C22.8941 18.6663 22.7994 18.1907 22.6154 17.7469C22.4315 17.3031 22.162 16.9 21.8222 16.5604C21.4824 16.2208 21.0791 15.9514 20.6353 15.7677C20.1914 15.584 19.7157 15.4895 19.2353 15.4896C18.2652 15.4898 17.3348 15.8755 16.649 16.5617C15.9632 17.2478 15.578 18.1784 15.5782 19.1485C15.5785 20.1187 15.9641 21.049 16.6503 21.7349C17.3365 22.4207 18.267 22.8059 19.2372 22.8056ZM23.6257 15.3086H25.8181C25.9637 15.3086 26.1035 15.2508 26.2066 15.148C26.3098 15.0452 26.368 14.9057 26.3685 14.76V12.5676C26.3685 12.4216 26.3105 12.2816 26.2073 12.1784C26.1041 12.0752 25.9641 12.0172 25.8181 12.0172H23.6257C23.4797 12.0172 23.3397 12.0752 23.2365 12.1784C23.1333 12.2816 23.0753 12.4216 23.0753 12.5676V14.76C23.0771 15.0617 23.324 15.3086 23.6257 15.3086ZM19.2372 1.59448C14.5815 1.59448 10.1166 3.44392 6.82457 6.73594C3.53254 10.028 1.68311 14.4929 1.68311 19.1485C1.68311 23.8041 3.53254 28.2691 6.82457 31.5611C10.1166 34.8531 14.5815 36.7026 19.2372 36.7026C21.5424 36.7026 23.825 36.2485 25.9548 35.3663C28.0845 34.4842 30.0197 33.1912 31.6497 31.5611C33.2798 29.9311 34.5728 27.9959 35.455 25.8662C36.3371 23.7364 36.7912 21.4538 36.7912 19.1485C36.7912 16.8433 36.3371 14.5606 35.455 12.4309C34.5728 10.3011 33.2798 8.36599 31.6497 6.73594C30.0197 5.1059 28.0845 3.81288 25.9548 2.9307C23.825 2.04853 21.5424 1.59448 19.2372 1.59448ZM28.3799 26.2597C28.3799 27.377 27.4656 28.2913 26.3484 28.2913H12.1259C11.0087 28.2913 10.0944 27.377 10.0944 26.2597V12.0373C10.0944 10.9201 11.0087 10.0058 12.1259 10.0058H26.3484C27.4656 10.0058 28.3799 10.9201 28.3799 12.0373V26.2597Z" fill="white"/>
</g>
</svg>
