<svg width="126" height="61" viewBox="0 0 126 61" fill="none" xmlns="http://www.w3.org/2000/svg">
<g id="Logo">
<g id="Ride">
<path d="M31.6645 49.1084C31.5529 49.1084 31.4971 49.0386 31.4971 48.8991L31.5808 20.1482C31.5808 20.0366 31.6366 19.9808 31.7482 19.9808H40.2018C41.7084 19.9808 43.0895 20.3575 44.345 21.1108C45.6284 21.8362 46.6467 22.8266 47.4 24.0821C48.1533 25.3097 48.53 26.7047 48.53 28.2671C48.53 29.2994 48.3765 30.2341 48.0696 31.0711C47.7627 31.8802 47.4 32.5777 46.9815 33.1636C46.563 33.7216 46.1864 34.14 45.8516 34.419C47.3582 36.093 48.1115 38.06 48.1115 40.3199L48.1533 48.8991C48.1533 49.0386 48.0836 49.1084 47.9441 49.1084H43.215C43.1034 49.1084 43.0476 49.0665 43.0476 48.9828V40.3199C43.0476 39.3155 42.6849 38.4506 41.9595 37.7252C41.262 36.9719 40.3971 36.5952 39.3648 36.5952H36.6028L36.5609 48.8991C36.5609 49.0386 36.5051 49.1084 36.3935 49.1084H31.6645ZM36.6028 31.5733H40.2018C41.0667 31.5733 41.834 31.2524 42.5036 30.6107C43.1732 29.969 43.508 29.1878 43.508 28.2671C43.508 27.3743 43.1732 26.6071 42.5036 25.9654C41.8619 25.3237 41.0946 25.0028 40.2018 25.0028H36.6028V31.5733Z" fill="white"/>
<path d="M51.8956 49.1084C51.7561 49.1084 51.6864 49.0386 51.6864 48.8991L51.7282 20.1482C51.7282 20.0366 51.784 19.9808 51.8956 19.9808H56.5828C56.6944 19.9808 56.7502 20.0366 56.7502 20.1482L56.792 48.8991C56.792 49.0386 56.7362 49.1084 56.6246 49.1084H51.8956Z" fill="white"/>
<path d="M60.6824 49.1084C60.5429 49.1084 60.4732 49.0386 60.4732 48.8991L60.5569 20.1482C60.5569 20.0366 60.6127 19.9808 60.7243 19.9808L68.5502 19.939C70.0847 19.9111 71.4797 20.2738 72.7352 21.0271C74.0186 21.7804 75.037 22.7987 75.7902 24.0821C76.5435 25.3376 76.9202 26.7326 76.9202 28.2671V40.278C76.9202 41.8962 76.5296 43.3749 75.7484 44.7141C74.9672 46.0254 73.921 47.0717 72.6097 47.8529C71.2984 48.6341 69.8197 49.0386 68.1736 49.0665L60.6824 49.1084ZM65.5789 43.9608H68.1736C69.2059 43.9608 70.0708 43.5981 70.7683 42.8727C71.4937 42.1473 71.8564 41.2824 71.8564 40.278V28.2253C71.8564 27.3325 71.5216 26.5652 70.852 25.9235C70.2103 25.2539 69.443 24.9331 68.5502 24.961L65.6207 25.0028L65.5789 43.9608Z" fill="white"/>
<path d="M80.3803 49.1084C80.2687 49.1084 80.2129 49.0386 80.2129 48.8991L80.2548 20.1482C80.2548 20.0366 80.3106 19.9808 80.4222 19.9808H93.856C93.9676 19.9808 94.0234 20.0506 94.0234 20.1901V24.8773C94.0234 24.9889 93.9676 25.0447 93.856 25.0447H85.2768V31.5733H93.856C93.9676 31.5733 94.0234 31.6291 94.0234 31.7407L94.0652 36.4697C94.0652 36.5813 94.0094 36.6371 93.8978 36.6371H85.2768V43.9608H93.8978C94.0094 43.9608 94.0652 44.0306 94.0652 44.1701C94.0652 44.3096 94.0652 48.941 94.0652 48.941C94.0652 49.0526 94.0094 49.1084 93.8978 49.1084C93.7862 49.1084 80.3803 49.1084 80.3803 49.1084Z" fill="white"/>
</g>
<g id="My">
<path d="M58.2206 8.69558L58.2332 8.26592C58.2416 7.99632 58.2669 7.70145 58.309 7.38131L58.4101 6.63572C58.4312 6.45879 58.4522 6.29872 58.4733 6.1555C58.0731 6.59359 57.7509 6.9348 57.5066 7.17912L56.7799 7.8868C55.1539 9.40748 54.1851 10.1678 53.8734 10.1678C53.4142 10.1678 52.9319 10.0688 52.4264 9.87084C52.1526 9.76132 51.9967 9.64759 51.9588 9.52964C51.8998 9.38221 51.8704 9.18212 51.8704 8.92937C51.8704 8.67241 51.8788 8.43652 51.8956 8.22169C51.9125 8.00685 51.9335 7.79413 51.9588 7.58351C51.9841 7.36867 52.0094 7.16437 52.0346 6.9706C52.0641 6.77262 52.0873 6.59991 52.1041 6.45248C52.1463 6.1197 52.1547 5.95331 52.1294 5.95331L49.7789 8.84091C48.671 10.1425 48.0413 10.8629 47.8896 11.0019C47.5653 11.2967 47.2072 11.4442 46.8155 11.4442C46.6217 11.4442 46.4616 11.3957 46.3352 11.2989C46.2089 11.202 46.1457 11.0819 46.1457 10.9387C46.1457 10.6522 46.2657 10.3532 46.5059 10.0414L52.1168 2.90773L52.7739 2.11791C53.5574 1.19539 54.0713 0.734131 54.3157 0.734131C54.6569 0.734131 54.9812 0.820485 55.2887 0.993194C55.5625 1.14484 55.7184 1.29228 55.7563 1.4355C55.7732 1.49026 55.7373 1.74511 55.6489 2.20005L55.4277 3.39427C55.1792 4.72539 55.0549 5.58472 55.0549 5.97226C55.0549 6.35559 55.0992 6.54725 55.1876 6.54725C55.4741 6.54725 56.0259 6.07757 56.8431 5.1382L58.8903 2.68658C59.3411 2.16846 59.6401 1.87359 59.7876 1.80198C59.8297 1.78091 59.8908 1.77038 59.9708 1.77038C60.0509 1.77038 60.1393 1.78091 60.2362 1.80198C60.3373 1.82304 60.4384 1.85042 60.5395 1.88412C60.6448 1.91782 60.7459 1.95784 60.8428 2.00417C60.9397 2.05051 61.026 2.09895 61.1018 2.1495C61.2661 2.25902 61.3462 2.34959 61.342 2.4212C61.342 2.4886 61.3251 2.63814 61.2914 2.86982C61.2577 3.09729 61.2156 3.37531 61.165 3.70388C60.8154 5.88169 60.6322 7.14542 60.6153 7.49505C60.6027 7.84468 60.6385 8.06372 60.7227 8.15218C60.8112 8.24064 60.9397 8.28487 61.1082 8.28487C61.4157 8.28487 61.8622 8.10163 62.4477 7.73515C62.8437 7.48662 63.1701 7.36236 63.4271 7.36236C63.6883 7.36236 63.8189 7.48662 63.8189 7.73515C63.8189 7.99211 63.6798 8.30383 63.4018 8.67031C63.0016 9.20107 62.4035 9.68129 61.6073 10.111C60.9376 10.469 60.3015 10.648 59.6991 10.648C58.7134 10.648 58.2206 9.99722 58.2206 8.69558Z" fill="white"/>
<path d="M66.2705 7.5456C66.2705 7.73937 66.399 7.83625 66.6559 7.83625C67.1782 7.83625 68.0671 7.18543 69.3224 5.8838L69.9353 5.26458C70.3523 4.85597 70.6282 4.65167 70.763 4.65167C70.8978 4.65167 71.0179 4.67484 71.1232 4.72118C71.2285 4.76751 71.3212 4.82649 71.4012 4.8981C71.5655 5.04553 71.6476 5.2035 71.6476 5.37199C71.6476 5.53628 71.6287 5.71952 71.5907 5.92171C71.557 6.1197 71.5023 6.34295 71.4265 6.59149C71.2875 7.05485 71.0368 7.67618 70.6745 8.45548L70.4155 9.01151L71.4897 8.03845L73.6885 6.1555C73.9118 5.987 74.0971 5.90276 74.2446 5.90276C74.5647 5.90276 74.7248 6.05651 74.7248 6.36401C74.7248 6.67995 74.5184 7.08644 74.1056 7.58351C73.9792 7.73937 73.8423 7.88469 73.6948 8.01949L72.2037 9.31481L69.2971 11.7727C69.0401 11.996 68.8464 12.1729 68.7158 12.3035C68.5599 12.5563 68.4378 12.7437 68.3493 12.8659C68.2651 12.9922 68.1808 13.1249 68.0966 13.2639C68.0123 13.4072 67.9302 13.5293 67.8501 13.6304C67.6774 13.8495 67.5047 13.959 67.332 13.959C67.1509 13.959 66.9761 13.8853 66.8076 13.7378C66.4958 13.464 66.34 13.2197 66.34 13.0049C66.34 12.79 66.399 12.5394 66.5169 12.253C66.6348 11.9707 66.7886 11.6464 66.9782 11.2799L68.3177 8.80932C67.6732 9.39063 67.1677 9.77607 66.8012 9.96562C66.4348 10.151 66.1251 10.2731 65.8724 10.3321C65.6239 10.3953 65.3585 10.4269 65.0763 10.4269C64.7982 10.4269 64.5539 10.3679 64.3433 10.25C64.1327 10.1362 63.9579 9.98247 63.8189 9.7887C63.5493 9.40537 63.4145 8.9062 63.4145 8.29119C63.4145 7.63827 63.5787 6.99377 63.9073 6.3577C64.2232 5.73426 64.6403 5.23298 65.1584 4.85387C65.706 4.44948 66.2684 4.24728 66.8455 4.24728C67.4226 4.24728 67.7111 4.47264 67.7111 4.92337C67.7111 5.2056 67.471 5.62474 66.9908 6.18078C66.5106 6.7326 66.2705 7.18754 66.2705 7.5456Z" fill="white"/>
</g>
<rect id="Rectangle 1" x="68.7511" y="28.531" width="3.13717" height="3.00235" fill="white"/>
<rect id="Rectangle 2" x="65.6141" y="31.5334" width="3.13717" height="3.00235" fill="white"/>
<rect id="Rectangle 3" x="68.7511" y="34.5103" width="3.13717" height="3.00235" fill="white"/>
<rect id="Rectangle 4" x="65.6141" y="37.5127" width="3.13717" height="3.00235" fill="white"/>
<path id="Rectangle 5 (Stroke)" fill-rule="evenodd" clip-rule="evenodd" d="M24.8083 6.95124C20.3676 6.95124 16.3829 9.67897 14.7761 13.8188L3.13305 43.8164C0.395363 50.8699 5.59914 58.4717 13.1653 58.4717H112.461C120.028 58.4717 125.231 50.8699 122.494 43.8164L110.851 13.8188C109.244 9.67896 105.259 6.95124 100.818 6.95124H82.4989V4.55981H100.818C106.246 4.55981 111.116 7.8937 113.08 12.9535L124.723 42.9511C128.069 51.5721 121.709 60.8631 112.461 60.8631H13.1653C3.91778 60.8631 -2.4424 51.5721 0.903663 42.9511L12.5467 12.9535C14.5106 7.89371 19.3808 4.55981 24.8083 4.55981H40.8119V6.95124H24.8083Z" fill="white"/>
</g>
</svg>
